<svg width="42" height="42" viewBox="0 0 42 42" fill="none" xmlns="http://www.w3.org/2000/svg">
<rect width="42" height="42" rx="21" fill="#05121C" fill-opacity="0.1"/>
<path fill-rule="evenodd" clip-rule="evenodd" d="M25.4553 26.6566C25.7872 26.9885 26.3254 26.9885 26.6574 26.6566C26.9893 26.3246 26.9893 25.7864 26.6574 25.4545L22.2026 20.9997L26.6571 16.5452C26.989 16.2133 26.989 15.6751 26.6571 15.3432C26.3252 15.0112 25.787 15.0112 25.455 15.3432L21.0005 19.7977L16.5457 15.3429C16.2138 15.0109 15.6756 15.0109 15.3437 15.3429C15.0117 15.6748 15.0117 16.213 15.3437 16.545L19.7984 20.9997L15.3434 25.4548C15.0114 25.7867 15.0114 26.3249 15.3434 26.6569C15.6753 26.9888 16.2135 26.9888 16.5455 26.6569L21.0005 22.2018L25.4553 26.6566Z" fill="white"/>
</svg>
