<svg width="16" height="16" viewBox="0 0 16 16" fill="none" xmlns="http://www.w3.org/2000/svg"><g clip-path="url(#clip0)"><path d="M15.343 3.338H2.833l-.186-2.072a.657.657 0 00-.655-.598H.657a.657.657 0 000 1.314h.734c.402 4.47-.635-7.085.756 8.42.054.607.382 1.265.947 1.712-1.019 1.301-.088 3.218 1.568 3.218 1.375 0 2.345-1.371 1.873-2.67h3.597a1.994 1.994 0 001.873 2.67 1.994 1.994 0 001.992-1.992 1.994 1.994 0 00-1.992-1.992H4.667c-.5 0-.934-.301-1.122-.74l10.501-.617a.657.657 0 00.599-.497l1.335-5.34a.657.657 0 00-.637-.816zm-10.68 10.68a.679.679 0 110-1.357.679.679 0 010 1.357zm7.342 0a.679.679 0 11.002-1.358.679.679 0 01-.002 1.358zm1.482-5.31l-10.12.594-.416-4.65H14.5l-1.014 4.055z" fill="#05121C"/></g><defs><clipPath id="clip0"><path fill="#fff" d="M0 0h16v16H0z"/></clipPath></defs></svg>