<svg width="48" height="48" viewBox="0 0 48 48" fill="none" xmlns="http://www.w3.org/2000/svg"><path d="M4.676 30.641h38.613l-.112 1.12c-.345 2.763-2.31 4.376-4.306 4.376H9.093c-2.256 0-4.022-1.942-4.303-4.356-.004-.025.012.128-.114-1.14zm40.298-16.874L43.535 28.18H4.432L3.028 14.073c-.376-3.308 3.192-4.837 4.84-2.944 3.962 4.57 4.386 5.472 5.718 5.313.5-.06.858-.285 1.155-.559 8.069-7.74 7.54-7.24 7.624-7.305 1.086-.836 2.483-.698 3.3-.017 8.154 6.851 7.776 6.55 7.958 6.653.761.438 1.659.382 2.426-.37 4.531-4.453 4.244-4.175 4.328-4.242 2.073-1.614 4.928.261 4.596 3.165z" fill="#2E390E"/></svg>