<svg width="12" height="12" viewBox="0 0 12 12" fill="none" xmlns="http://www.w3.org/2000/svg"><g clip-path="url(#clip0)"><path d="M11.674 8.807L9.998 7.132c-.598-.598-1.615-.359-1.854.419-.18.538-.778.837-1.316.718-1.196-.3-2.811-1.855-3.11-3.11-.18-.539.18-1.137.718-1.316.777-.24 1.016-1.256.418-1.854L3.181.314c-.479-.419-1.196-.419-1.615 0L.43 1.45C-.707 2.647.55 5.816 3.36 8.627c2.811 2.811 5.981 4.127 7.177 2.931l1.136-1.136c.42-.479.42-1.197 0-1.615z" fill="#fff" fill-opacity=".8"/></g><defs><clipPath id="clip0"><path fill="#fff" d="M0 0h12v12H0z"/></clipPath></defs></svg>