<svg width="34" height="31" viewBox="0 0 34 31" fill="none" xmlns="http://www.w3.org/2000/svg"><path d="M14.191 4.7c-1.667 1.667-3.133 3.633-4.4 5.9-1.2 2.2-2.033 4.467-2.5 6.8.267-.067.733-.1 1.4-.1 1.467 0 2.7.6 3.7 1.8 1.067 1.133 1.6 2.6 1.6 4.4 0 2.067-.633 3.767-1.9 5.1-1.267 1.267-2.933 1.9-5 1.9s-3.733-.767-5-2.3-1.9-3.7-1.9-6.5c0-3.6.933-7.333 2.8-11.2 1.867-3.933 4.4-7.233 7.6-9.9l3.6 4.1zm14.1 12.6c1.533 0 2.8.6 3.8 1.8 1.067 1.133 1.6 2.6 1.6 4.4 0 2.067-.633 3.767-1.9 5.1-1.267 1.267-2.933 1.9-5 1.9-2.133 0-3.833-.767-5.1-2.3-1.267-1.533-1.9-3.7-1.9-6.5 0-3.533.933-7.267 2.8-11.2 1.867-3.933 4.4-7.233 7.6-9.9l3.6 4.1c-1.667 1.667-3.1 3.633-4.3 5.9-1.2 2.2-2.033 4.467-2.5 6.8.267-.067.7-.1 1.3-.1z" fill="#FFC700"/></svg>