<svg width="17" height="17" viewBox="0 0 17 17" fill="none" xmlns="http://www.w3.org/2000/svg"><g clip-path="url(#clip0)"><path d="M16.431 15.073l-3.808-3.96A6.44 6.44 0 0014.14 6.96 6.467 6.467 0 007.679.5a6.467 6.467 0 00-6.46 6.46 6.467 6.467 0 006.46 6.46 6.39 6.39 0 003.7-1.169l3.838 3.99a.838.838 0 001.191.023.844.844 0 00.023-1.19zM7.68 2.185a4.78 4.78 0 014.774 4.775 4.78 4.78 0 01-4.774 4.775A4.78 4.78 0 012.904 6.96a4.78 4.78 0 014.775-4.775z" fill="#fff"/></g><defs><clipPath id="clip0"><path fill="#fff" transform="translate(.942 .5)" d="M0 0h16v16H0z"/></clipPath></defs></svg>