<svg width="48" height="48" viewBox="0 0 48 48" fill="none" xmlns="http://www.w3.org/2000/svg"><path d="M43.006 39.582l-2.143-27.01a3.375 3.375 0 00-3.35-3.103h-4.235v6.273a1.405 1.405 0 11-2.811 0V9.47H17.534v6.273a1.406 1.406 0 11-2.812 0V9.47h-4.234a3.375 3.375 0 00-3.35 3.099L4.993 39.586a7.839 7.839 0 002.06 5.909A7.84 7.84 0 0012.785 48h22.428a7.84 7.84 0 005.734-2.506 7.838 7.838 0 002.058-5.912zM30.334 25.827l-7.271 7.27a1.402 1.402 0 01-1.989 0l-3.407-3.407a1.405 1.405 0 111.987-1.988l2.415 2.413 6.277-6.277a1.407 1.407 0 011.988 1.989zM24 0c-5.115 0-9.277 4.163-9.277 9.279v.19h2.811v-.19c0-3.566 2.9-6.468 6.467-6.468a6.474 6.474 0 016.466 6.468v.19h2.812v-.19C33.279 4.163 29.117 0 24 0z" fill="#70715F"/></svg>