<svg width="48" height="48" viewBox="0 0 48 48" fill="none" xmlns="http://www.w3.org/2000/svg"><path d="M14.22 30.04a4.228 4.228 0 00-4.23 4.222 4.23 4.23 0 004.23 4.229 4.226 4.226 0 000-8.45zm0 6.34a2.12 2.12 0 01-2.118-2.118c0-1.16.95-2.11 2.117-2.11 1.161 0 2.111.95 2.111 2.11 0 1.168-.95 2.118-2.11 2.118zm-3.64-6.338H1.115a.679.679 0 00-.679.68v2.058c0 .375.304.68.679.68H8.7a5.57 5.57 0 011.878-3.418zm25.732-.001a4.226 4.226 0 000 8.45 4.223 4.223 0 004.222-4.229 4.222 4.222 0 00-4.222-4.221zm0 6.339a2.115 2.115 0 010-4.229 2.115 2.115 0 010 4.229zm11.01-6.34h-1.65v-9.223c0-1.08-.326-2.138-.93-3.034L40.61 11.66a5.424 5.424 0 00-4.5-2.39H29.7c-.746 0-1.357.605-1.357 1.358V30.04H17.858a5.582 5.582 0 011.873 3.42H30.8c.387-2.694 2.708-4.778 5.511-4.778s5.125 2.084 5.518 4.779h5.491c.38 0 .679-.306.679-.68V30.72a.676.676 0 00-.679-.678zM40.56 19.006h-8.457a.676.676 0 01-.679-.68v-4.69a.68.68 0 01.68-.678h5.15c.225 0 .435.109.557.285l3.306 4.697a.676.676 0 01-.557 1.066zm-15.448 9.678H1.357c-.75 0-1.357-.607-1.357-1.357v-6.109c0-.75.608-1.357 1.357-1.357h23.756c.75 0 1.358.607 1.358 1.357v6.109c0 .75-.608 1.357-1.358 1.357zM10.86 17.823H1.357c-.75 0-1.357-.607-1.357-1.357v-6.109C0 9.607.608 9 1.357 9h9.503c.75 0 1.357.608 1.357 1.357v6.109c0 .75-.607 1.357-1.357 1.357zm14.253 0h-9.502c-.75 0-1.358-.607-1.358-1.357v-6.109c0-.75.608-1.357 1.358-1.357h9.502c.75 0 1.358.608 1.358 1.357v6.11c0 .749-.608 1.357-1.358 1.357z" fill="#2E390E"/></svg>