<svg width="48" height="48" viewBox="0 0 48 48" fill="none" xmlns="http://www.w3.org/2000/svg"><path d="M42.487 15.48L24.674 3.209a1.19 1.19 0 00-1.347 0L5.515 15.479a1.186 1.186 0 00-.515.98v22.958C5 40.29 5.71 41 6.583 41H9.75V22c0-.874.71-1.583 1.583-1.583h25.334c.874 0 1.583.709 1.583 1.583v19h3.167C42.29 41 43 40.29 43 39.417V16.458c0-.39-.192-.756-.513-.978z" fill="#2E390E"/><path d="M19.648 33.084v1.187a1.188 1.188 0 01-2.375 0v-1.188h-2.771a.792.792 0 00-.792.792v6.334c0 .436.355.791.792.791h7.916a.792.792 0 00.792-.791v-6.334a.792.792 0 00-.792-.791h-2.77zm11.079 0v1.187a1.188 1.188 0 01-2.375 0v-1.188h-2.77a.792.792 0 00-.792.792v6.334c0 .436.355.791.792.791h7.916a.792.792 0 00.792-.791v-6.334a.792.792 0 00-.792-.791h-2.77zm-5.539-9.5v1.187a1.188 1.188 0 01-2.375 0v-1.188h-2.771a.792.792 0 00-.792.792v6.334c0 .436.355.791.792.791h7.916a.792.792 0 00.792-.791v-6.334a.792.792 0 00-.792-.791h-2.77z" fill="#2E390E"/></svg>